<svg width="232" height="65" fill="none" xmlns="http://www.w3.org/2000/svg"><path fill="#A6A797" fill-opacity=".28" d="M52 33h180v10H52z"/><path d="M24.54 41.48c0 2.04-.5 3.8-1.48 5.3a9.45 9.45 0 0 1-4.31 3.47 17.18 17.18 0 0 1-6.84 1.22 25.71 25.71 0 0 1-6.75-.92 20.3 20.3 0 0 1-2.96-1.14v-6.75c1.63.72 3.32 1.36 5.07 1.94 1.75.58 3.48.87 5.2.87 1.19 0 2.14-.16 2.86-.47a3.27 3.27 0 0 0 1.6-1.29c.32-.55.48-1.17.48-1.87 0-.86-.29-1.6-.86-2.2a9.06 9.06 0 0 0-2.4-1.72c-1-.53-2.13-1.1-3.4-1.7-.79-.38-1.66-.84-2.6-1.37a15.22 15.22 0 0 1-2.67-2 9.6 9.6 0 0 1-2.08-2.83A9.37 9.37 0 0 1 2.6 26c0-2.04.47-3.8 1.4-5.25a8.9 8.9 0 0 1 4.02-3.33 15.07 15.07 0 0 1 6.18-1.17c1.78 0 3.48.21 5.09.64 1.62.4 3.32 1 5.09 1.78l-2.35 5.64c-1.58-.64-3-1.13-4.24-1.47a13.76 13.76 0 0 0-3.82-.54c-.9 0-1.68.15-2.32.44a3.13 3.13 0 0 0-1.95 3.03c0 .81.24 1.5.7 2.06.5.55 1.2 1.08 2.16 1.6.97.51 2.17 1.11 3.61 1.8 1.75.83 3.24 1.7 4.48 2.6a9.53 9.53 0 0 1 2.88 3.16c.67 1.2 1 2.7 1 4.5Zm12.8-26.95v7.43a96 96 0 0 1-.33 6.19h.37a7.78 7.78 0 0 1 2-2.2 8.2 8.2 0 0 1 2.57-1.25c.94-.26 1.95-.4 3.03-.4 1.89 0 3.54.34 4.94 1.01 1.4.66 2.5 1.7 3.28 3.12.78 1.4 1.17 3.23 1.17 5.48V51h-7.14V35.7c0-1.88-.35-3.3-1.03-4.25-.7-.95-1.75-1.43-3.2-1.43-1.43 0-2.56.34-3.4 1.01a5.34 5.34 0 0 0-1.75 2.93 18.44 18.44 0 0 0-.51 4.71V51h-7.15V14.53h7.15Zm35.13 9.73c3.51 0 6.21.76 8.08 2.3 1.88 1.53 2.82 3.85 2.82 6.98V51h-5L77 47.44h-.19c-.75.94-1.51 1.7-2.3 2.3a7.88 7.88 0 0 1-2.69 1.3c-1.01.29-2.25.43-3.7.43a9.5 9.5 0 0 1-4.17-.9 6.63 6.63 0 0 1-2.89-2.71A9.38 9.38 0 0 1 60 43.17c0-2.78.98-4.83 2.93-6.14 1.95-1.33 4.88-2.06 8.79-2.2l4.55-.14v-1.15c0-1.38-.36-2.38-1.08-3.02a4.35 4.35 0 0 0-3-.97c-1.27 0-2.51.18-3.73.54-1.22.36-2.44.82-3.66 1.36l-2.36-4.82c1.39-.74 2.94-1.32 4.66-1.74 1.74-.42 3.53-.63 5.37-.63Zm3.8 14.6-2.77.1c-2.31.06-3.92.47-4.83 1.24a3.8 3.8 0 0 0-1.33 3.02c0 1.1.32 1.87.96 2.34.64.46 1.47.68 2.5.68a5.7 5.7 0 0 0 3.87-1.36 4.8 4.8 0 0 0 1.6-3.86v-2.16Zm22.78 12.6a8.77 8.77 0 0 1-7.15-3.41c-1.83-2.3-2.74-5.67-2.74-10.1 0-4.49.93-7.88 2.79-10.18a8.9 8.9 0 0 1 7.28-3.47c1.25 0 2.36.18 3.3.52A8 8 0 0 1 105 26.2c.7.58 1.3 1.23 1.78 1.95h.24c-.1-.5-.21-1.24-.36-2.2-.12-.99-.18-2-.18-3.03v-8.39h7.17V51h-5.49l-1.38-3.4h-.3a8.84 8.84 0 0 1-1.71 1.97 7.75 7.75 0 0 1-2.42 1.38 9.6 9.6 0 0 1-3.3.52Zm2.5-5.69c1.96 0 3.33-.57 4.13-1.73.81-1.17 1.24-2.93 1.29-5.27v-.78c0-2.54-.4-4.49-1.17-5.83-.78-1.36-2.24-2.04-4.36-2.04a4.2 4.2 0 0 0-3.7 2.04c-.9 1.36-1.34 3.32-1.34 5.88s.44 4.5 1.33 5.79a4.4 4.4 0 0 0 3.83 1.94Zm43.39-7.92c0 2.19-.3 4.13-.9 5.81a10.74 10.74 0 0 1-6.59 6.91c-1.55.6-3.32.9-5.29.9-1.84 0-3.53-.3-5.08-.9a11.3 11.3 0 0 1-4.01-2.62c-1.13-1.17-2-2.6-2.63-4.29-.6-1.68-.9-3.62-.9-5.8 0-2.91.5-5.38 1.54-7.4a10.61 10.61 0 0 1 4.4-4.59 13.97 13.97 0 0 1 6.83-1.57c2.45 0 4.62.53 6.51 1.57 1.9 1.05 3.4 2.58 4.48 4.6a15.3 15.3 0 0 1 1.64 7.38Zm-18.12 0c0 1.72.19 3.17.56 4.34a5.13 5.13 0 0 0 1.76 2.65c.8.59 1.84.89 3.12.89 1.26 0 2.29-.3 3.07-.9a5 5 0 0 0 1.73-2.64c.38-1.17.56-2.62.56-4.34 0-1.73-.18-3.17-.56-4.31a4.87 4.87 0 0 0-1.73-2.6 5.18 5.18 0 0 0-3.12-.87c-1.89 0-3.27.65-4.12 1.95-.85 1.3-1.27 3.24-1.27 5.83ZM172.38 51l-2.01-9.16a773.3 773.3 0 0 0-2.67-11.58h-.22l-.51 2.3-.8 3.42a4114.15 4114.15 0 0 1-1.36 5.95l-2.1 9.07H155l-7.45-26.2h7.13l3.02 11.6c.2.81.4 1.78.59 2.9.18 1.11.35 2.2.49 3.24.16 1.03.27 1.85.35 2.46h.19c.03-.45.1-1.05.19-1.8a208.43 208.43 0 0 1 .72-4.5l.28-1.34 3.24-12.56h7.87l3.07 12.56a56.34 56.34 0 0 1 .91 5.2c.15 1.03.23 1.85.24 2.44h.19a118.11 118.11 0 0 1 .87-5.65c.22-1.15.43-2.14.65-2.95l3.14-11.6h7.01L180.16 51h-7.78Zm37.85-7.78c0 1.78-.42 3.29-1.26 4.52a7.7 7.7 0 0 1-3.73 2.8c-1.65.62-3.72.93-6.19.93-1.82 0-3.4-.12-4.7-.35a19.4 19.4 0 0 1-3.94-1.17v-5.91c1.42.64 2.94 1.17 4.57 1.6 1.64.4 3.08.6 4.3.6 1.4 0 2.4-.2 2.99-.6.6-.43.91-.98.91-1.65 0-.44-.13-.83-.38-1.17a4.42 4.42 0 0 0-1.54-1.2c-.8-.45-2.05-1.03-3.75-1.75-1.64-.69-3-1.39-4.06-2.09a7.07 7.07 0 0 1-2.34-2.48c-.5-.97-.75-2.2-.75-3.68 0-2.42.94-4.25 2.81-5.46 1.9-1.24 4.42-1.86 7.57-1.86a21.24 21.24 0 0 1 9.21 2.07l-2.15 5.15a36.63 36.63 0 0 0-3.68-1.38c-1.14-.36-2.3-.54-3.5-.54a5.2 5.2 0 0 0-2.36.42c-.53.28-.8.71-.8 1.3 0 .41.13.79.4 1.12.28.33.81.7 1.6 1.1.79.39 1.95.9 3.48 1.52 1.49.61 2.78 1.25 3.87 1.92a7.22 7.22 0 0 1 2.53 2.47c.6.96.9 2.22.9 3.77Z" fill="#F8BF1A"/></svg>
