<svg xmlns="http://www.w3.org/2000/svg" xml:space="preserve" style="enable-background:new 0 0 91.823 91.823" viewBox="0 0 91.823 91.823"><path d="M45.911 91.823c25.288 0 45.912-20.624 45.912-45.911S71.199.001 45.911.001C20.624.001 0 20.625 0 45.912s20.624 45.911 45.911 45.911z" style="fill-rule:evenodd;clip-rule:evenodd;fill:#ff93a7"/><path d="M45.911 11.427c10.278.175 17.754 2.445 24.236 13.564 4.997 8.571 9.063 32.756.104 51.137.06-4.209-1.854-8.159-5.097-10.212 1.541 4.633 7.6 11.668 1.506 20.787-.062.092-.127.18-.191.269a45.719 45.719 0 0 1-20.559 4.852c-2.05 0-4.068-.136-6.048-.396-5.365-1.614-10.298-4.552-13.491-8.97-3.314-4.586-2.962-10.493.851-16.184-4.808 2.134-4.522 10.827-5.401 8.97-2.508-3.494-10.271-23.654 1.142-48.421 4.308-9.353 12.362-15.576 22.948-15.396z" style="fill-rule:evenodd;clip-rule:evenodd;fill:#802d04"/><path d="m60.169 82.552 1.838 6.368a45.933 45.933 0 0 0 14.532-8.808l-.608-2.108c-2.854-9.883-18.467-4.825-15.762 4.548z" style="fill-rule:evenodd;clip-rule:evenodd;fill:#ffddcb"/><path d="m60.169 82.552 1.838 6.368a45.918 45.918 0 0 0 14.531-8.808l-.607-2.108c-2.854-9.884-18.467-4.825-15.762 4.548z" style="fill-rule:evenodd;clip-rule:evenodd;fill:#8599b4"/><path d="m33.264 82.552-1.987 6.888a45.845 45.845 0 0 1-14.703-8.214l.93-3.222c2.851-9.883 18.466-4.825 15.76 4.548z" style="fill-rule:evenodd;clip-rule:evenodd;fill:#ffddcb"/><path d="m33.264 82.552-1.987 6.888a45.845 45.845 0 0 1-14.703-8.214l.93-3.222c2.851-9.884 18.466-4.825 15.76 4.548z" style="fill-rule:evenodd;clip-rule:evenodd;fill:#8599b4"/><path d="M68.825 72.63H24.749v14.032a45.705 45.705 0 0 0 21.162 5.16 45.702 45.702 0 0 0 22.914-6.118V72.63z" style="fill-rule:evenodd;clip-rule:evenodd;fill:#497193"/><path d="M34.538 72.63h24.5v1.538c0 6.737-5.514 12.25-12.251 12.25-6.737 0-12.249-5.513-12.249-12.25V72.63z" style="fill-rule:evenodd;clip-rule:evenodd;fill:#8599b4"/><path d="M56.607 55.001V72.63c0 14.833-19.64 14.421-19.64 0V55.001c.001-12.105 19.64-12.104 19.64 0z" style="fill-rule:evenodd;clip-rule:evenodd;fill:#ffddcb"/><path d="M56.607 55.001v15.008c-3.716 2.709-7.298 4.227-9.819 4.227s-6.104-1.518-9.819-4.226V55.001c0-12.105 19.638-12.105 19.638 0z" style="fill-rule:evenodd;clip-rule:evenodd;fill:#ecc2a0"/><path d="M46.787 14.754c-32.956 0-21.104 39.821-18.951 42.991 2.374 3.496 13.627 12.761 18.951 12.761 5.325 0 16.578-9.265 18.952-12.761 2.154-3.169 14.004-42.991-18.952-42.991z" style="fill-rule:evenodd;clip-rule:evenodd;fill:#ffddcb"/><path d="M36.222 54.261c7.214 2.79 15.362 2.518 21.132 0-2.306 5.971-17.845 6.02-21.132 0z" style="fill-rule:evenodd;clip-rule:evenodd;fill:#ecc2a0"/><path d="M38.358 53.089c-1.328 1.105-2.161 2.726-2.297 4.125-.912-1.538.768-4.605 2.297-4.125z" style="fill-rule:evenodd;clip-rule:evenodd;fill:#f6c4a9;stroke:#ecc2a0;stroke-width:.216;stroke-miterlimit:22.9256"/><path d="M55.068 53.089c1.329 1.105 2.161 2.726 2.297 4.125.912-1.538-.767-4.605-2.297-4.125z" style="fill-rule:evenodd;clip-rule:evenodd;fill:#ecc2a0"/><ellipse cx="23.407" cy="43.787" rx="5.702" ry="3.297" style="fill-rule:evenodd;clip-rule:evenodd;fill:#ffddcb" transform="rotate(-108.228 23.406 43.787)"/><ellipse cx="70.405" cy="43.787" rx="5.702" ry="3.298" style="fill-rule:evenodd;clip-rule:evenodd;fill:#ffddcb" transform="rotate(-71.772 70.402 43.789)"/><path d="M68.262 48.752s-2.151-11.739-7.108-18.473c-3.592 7.9-7.139 11.77-24.201 15.789 5.165-4.333 7.568-10.832 7.814-14.351-11.047 3.045-17.871 11.657-19.576 17.486-5.175-9.006-.441-22.582 3.129-27.714 6.887-9.905 23.757-12.311 33.833-3.304 6.991 6.25 9.87 4.86 6.109 30.567z" style="fill-rule:evenodd;clip-rule:evenodd;fill:#802d04"/><path d="M67.482 21.009a38.854 38.854 0 0 1 2.644 3.982c4.729 8.109 8.62 30.194 1.438 48.118l.02.008c.071.026.143.054.213.083l.123.052c.074.032.149.066.223.101l.111.055c.077.037.153.077.229.118l.096.054c.078.044.154.09.23.137l.085.053c.081.052.159.105.238.16l.062.043c.081.059.162.12.242.183l.061.049c.08.065.16.133.237.202l.044.039c.081.073.16.148.237.227l.036.037c.079.08.156.163.233.248l.035.04c.079.09.155.183.23.278l.014.018c.079.101.155.204.229.31l.01.016c.075.108.149.221.219.336l.001.002.001.001c.072.118.143.239.209.363l.003.004a8.65 8.65 0 0 1 .676 1.68l.612 2.122a46.013 46.013 0 0 1-9.039 6.321V71.155c.211.478.417.97.61 1.476h.471l.109-.003h.189l.189.005.027.001.108.005h.026l.027.002.188.013.027.002.026.003.027.002.026.002.026.003.027.002.241.026c-.444-1.759-1.246-3.375-2.35-4.701V21.009zm-20.713-9.562c8.48.252 15.031 2.114 20.714 9.562v46.982a9.975 9.975 0 0 0-2.35-2.076c.499 1.498 1.47 3.248 2.35 5.239v15.293a45.66 45.66 0 0 1-20.714 5.364V11.447z" style="opacity:.2;fill-rule:evenodd;clip-rule:evenodd"/></svg>